#!OML:ASF F:\VICON\USERDATA\INSTALL\rory3\rory3.ASF
:FULLY-SPECIFIED
:DEGREES
4175
root -13.7295 17.7294 12.6849 1076.96 68.4155 355.907
lowerback 10.7429 4.98344 2.10692
upperback 0.702688 6.84494 -1.05527
thorax -4.88161 3.33389 -3.26816
lowerneck -16.707 8.50928 -6.82609
upperneck 43.5815 16.551 5.07145
head 17.9905 6.86878 6.83636
rclavicle -5.65045e-014 1.31198e-014
rhumerus -31.9208 -10.8763 -76.4693
rradius 45.7881
rwrist 3.45458
rhand -16.9545 9.21964
rfingers 7.12502
rthumb 9.27929 -20.5562
lclavicle -5.65045e-014 1.31198e-014
lhumerus -36.0604 5.23433 79.4942
lradius 34.4523
lwrist -4.20793
lhand -19.4903 28.4241
lfingers 7.12502
lthumb 6.83186 58.2939
rfemur -18.3404 4.49839 14.2237
rtibia 35.157
rfoot -22.4244 12.6032
rtoes -15.8222
lfemur -5.54698 -8.82072 -24.4266
ltibia 24.9484
lfoot -12.288 -19.6345
ltoes 20.5045
4176
root -13.7528 17.737 12.6338 1077.38 67.6285 356.444
lowerback 10.8736 4.98057 1.87627
upperback 0.721701 6.81655 -1.02554
thorax -4.96657 3.32274 -3.12002
lowerneck -16.5823 8.45622 -6.5526
upperneck 43.5378 16.5159 4.65727
head 18.0407 6.83062 6.59839
rclavicle 2.04251e-014 1.39149e-015
rhumerus -31.9378 -10.6456 -76.4953
rradius 45.7829
rwrist 3.61971
rhand -16.5611 9.27801
rfingers 7.12502
rthumb 9.65885 -20.4805
lclavicle 2.04251e-014 1.39149e-015
lhumerus -35.9372 5.00982 79.3953
lradius 34.7221
lwrist -4.27569
lhand -19.6487 28.7122
lfingers 7.12502
lthumb 6.67891 58.5868
rfemur -18.3898 3.81031 14.3246
rtibia 36.5161
rfoot -22.5835 10.5766
rtoes -15.7369
lfemur -5.44361 -8.42273 -24.7572
ltibia 24.6608
lfoot -12.1036 -19.1434
ltoes 20.0808
4177
root -13.7814 17.7375 12.5764 1078.43 66.6983 357.517
lowerback 10.9548 5.00639 1.41048
upperback 0.67963 6.79299 -1.04803
thorax -5.10856 3.31668 -2.89684
lowerneck -16.8961 8.20952 -5.60729
upperneck 43.9346 16.4492 3.50879
head 18.6936 6.70528 6.05259
rclavicle -6.03808e-015 -1.05356e-014
rhumerus -31.9733 -10.2087 -76.5974
rradius 45.8255
rwrist 3.67224
rhand -16.4788 9.34464
rfingers 7.12502
rthumb 9.73827 -20.4102
lclavicle -6.03808e-015 -1.05356e-014
lhumerus -35.8805 4.96403 79.2545
lradius 34.9873
lwrist -4.26861
lhand -19.6793 28.7609
lfingers 7.12502
lthumb 6.64945 58.6365
rfemur -18.6581 3.02499 14.1592
rtibia 37.9937
rfoot -22.3843 8.77781
rtoes -14.962
lfemur -5.52773 -7.91898 -25.3213
ltibia 24.3714
lfoot -12.0749 -18.5211
ltoes 18.7859
4178
root -13.8064 17.7396 12.5172 1079.01 65.7168 358.102
lowerback 11.0283 5.07698 1.24214
upperback 0.639277 6.86233 -1.12082
thorax -5.19883 3.35123 -2.90044
lowerneck -16.6002 8.25248 -5.34027
upperneck 43.8123 16.4875 3.20612
head 18.6202 6.73193 5.84316
rclavicle 6.41826e-014 -9.34288e-015
rhumerus -32.0268 -9.92541 -76.7681
rradius 45.8505
rwrist 3.72547
rhand -16.5119 9.46306
rfingers 7.12502
rthumb 9.70632 -20.2933
lclavicle 6.41826e-014 -9.34288e-015
lhumerus -35.7433 4.78627 79.0763
lradius 35.2151
lwrist -4.2526
lhand -19.6422 28.6136
lfingers 7.12502
lthumb 6.68528 58.4881
rfemur -18.8998 2.02839 14.2004
rtibia 39.5761
rfoot -22.0295 7.12185
rtoes -14.4462
lfemur -5.57665 -7.35105 -25.7012
ltibia 24.0789
lfoot -11.9221 -17.99
ltoes 18.091
4179
root -13.8261 17.7483 12.4542 1079.2 64.7151 358.256
lowerback 11.0327 5.1518 1.29725
upperback 0.629891 6.96678 -1.147
thorax -5.19589 3.40106 -2.97352
lowerneck -16.6474 8.25578 -5.39198
upperneck 43.9098 16.4959 3.25324
head 18.6784 6.71918 5.887
rclavicle -2.70844e-015 5.96354e-016
rhumerus -32.0464 -9.5291 -76.9222
rradius 45.9677
rwrist 3.62037
rhand -16.4389 9.49895
rfingers 7.12502
rthumb 9.77674 -20.2541
lclavicle -2.70844e-015 5.96354e-016
lhumerus -35.5238 4.63121 78.9453
lradius 35.4409
lwrist -4.08044
lhand -19.6233 28.5614
lfingers 7.12502
lthumb 6.70349 58.4353
rfemur -19.1249 0.967218 14.4429
rtibia 41.2233
rfoot -21.8518 5.12231
rtoes -15.8368
lfemur -5.63956 -6.8105 -25.9096
ltibia 23.7888
lfoot -11.5624 -17.5857
ltoes 18.3254
4180
root -13.8442 17.7589 12.3895 1079.48 63.692 358.51
lowerback 11.0216 5.18581 1.28947
upperback 0.64307 7.00952 -1.16754
thorax -5.17185 3.42274 -2.99443
lowerneck -16.7405 8.31043 -5.51077
upperneck 43.9907 16.5894 3.32996
head 18.7189 6.73212 5.96874
rclavicle 7.11152e-014 -8.74653e-015
rhumerus -32.0128 -8.9669 -77.1251
rradius 46.0987
rwrist 3.5252
rhand -16.3142 9.43018
rfingers 7.12502
rthumb 9.89704 -20.3172
lclavicle 7.11152e-014 -8.74653e-015
lhumerus -35.3471 4.61245 78.8052
lradius 35.7193
lwrist -3.8627
lhand -19.7443 28.6935
lfingers 7.12502
lthumb 6.58669 58.571
rfemur -19.3285 0.1201 14.5618
rtibia 42.9181
rfoot -21.3741 3.44993
rtoes -14.4766
lfemur -5.71534 -6.26972 -26.1852
ltibia 23.5097
lfoot -11.1092 -17.347
ltoes 19.1811
4181
root -13.8626 17.767 12.3286 1079.74 62.7176 358.793
lowerback 11.0618 5.13584 1.18397
upperback 0.667713 6.93266 -1.11196
thorax -5.19189 3.38717 -2.87113
lowerneck -16.7831 8.43859 -5.80119
upperneck 44.0303 16.8656 3.36752
head 18.6928 6.7916 6.07629
rclavicle -6.60959e-015 1.0138e-014
rhumerus -31.8938 -8.24145 -77.3201
rradius 46.1394
rwrist 3.54728
rhand -16.3444 9.3993
rfingers 7.12502
rthumb 9.86793 -20.3495
lclavicle -6.60959e-015 1.0138e-014
lhumerus -35.2932 4.99198 78.6383
lradius 36.0109
lwrist -3.97005
lhand -19.8766 29.0278
lfingers 7.12502
lthumb 6.45898 58.9093
rfemur -19.5155 -0.672295 14.6276
rtibia 44.7786
rfoot -20.656 2.04214
rtoes -11.141
lfemur -5.70355 -5.71308 -26.4678
ltibia 23.1162
lfoot -10.6248 -17.1355
ltoes 20.1188
4182
root -13.8791 17.7712 12.2717 1079.91 61.7333 358.96
lowerback 11.0117 5.09147 1.07226
upperback 0.73313 6.86515 -0.99561
thorax -5.12623 3.35927 -2.67053
lowerneck -16.8892 8.59936 -6.27407
upperneck 44.084 17.2252 3.49783
head 18.6454 6.86805 6.26932
rclavicle 3.68249e-014 4.27387e-015
rhumerus -31.6575 -7.45745 -77.476
rradius 46.0819
rwrist 3.53849
rhand -16.6205 9.53084
rfingers 7.12502
rthumb 9.6015 -20.2304
lclavicle 3.68249e-014 4.27387e-015
lhumerus -35.1844 5.7612 78.3828
lradius 36.2154
lwrist -4.27953
lhand -19.6987 28.9601
lfingers 7.12502
lthumb 6.63069 58.8363
rfemur -19.5764 -1.47766 14.7561
rtibia 46.484
rfoot -19.8799 0.703197
rtoes -6.63375
lfemur -5.75485 -5.36625 -26.7197
ltibia 22.8643
lfoot -10.547 -16.3252
ltoes 19.8112
4183
root -13.8904 17.752 12.1531 1082.75 60.9077 361.587
lowerback 10.6851 5.0692 0.613898
upperback 0.655599 6.75294 -1.5294
thorax -5.01882 3.31247 -2.92716
lowerneck -16.9983 8.69328 -6.40148
upperneck 44.0895 17.3952 3.51769
head 18.644 6.90625 6.33094
rclavicle 3.9496e-014 -5.96354e-015
rhumerus -31.4909 -7.09839 -77.6291
rradius 46.0824
rwrist 3.53849
rhand -16.6325 9.57619
rfingers 7.12502
rthumb 9.58991 -20.1855
lclavicle 3.9496e-014 -5.96354e-015
lhumerus -35.0025 6.05284 78.1727
lradius 36.5716
lwrist -3.96686
lhand -19.7299 28.9355
lfingers 7.12502
lthumb 6.60053 58.8127
rfemur -20.3089 -3.24719 13.2466
rtibia 48.3491
rfoot -19.3721 0.186814
rtoes -3.17528
lfemur -6.30785 -5.38503 -28.4804
ltibia 22.4989
lfoot -10.3362 -15.3515
ltoes 19.3339
